<svg width="375" height="36" viewBox="0 0 375 36" fill="none" xmlns="http://www.w3.org/2000/svg">
<g clip-path="url(#clip0_2462_8)">
<path d="M0.739746 36H12.9452C18.7329 36 23.4247 31.3081 23.4247 25.5205H11.2192C5.43156 25.5205 0.739746 30.2123 0.739746 36Z" fill="#F22BB2"/>
<path d="M1.28564 10.4795V25.8904C7.07329 25.8904 11.7651 21.1986 11.7651 15.411V0C5.97746 0 1.28564 4.69181 1.28564 10.4795Z" fill="#8C30F5"/>
<path d="M35.2604 0H23.0549C17.2673 0 12.5754 4.69181 12.5754 10.4795H24.7809C30.5686 10.4795 35.2604 5.78764 35.2604 0Z" fill="#FE9A22"/>
<path d="M35.2602 24.9041V9.49316C29.4726 9.49316 24.7808 14.185 24.7808 19.9726V35.3836C30.5684 35.3836 35.2602 30.6918 35.2602 24.9041Z" fill="#2EC5CE"/>
</g>
<path d="M65.7301 15.0597C65.5653 14.5426 65.3438 14.0795 65.0653 13.6705C64.7926 13.2557 64.4659 12.9034 64.0852 12.6136C63.7045 12.3182 63.2699 12.0937 62.7812 11.9403C62.2983 11.7869 61.767 11.7102 61.1875 11.7102C60.2045 11.7102 59.3182 11.9631 58.5284 12.4688C57.7386 12.9744 57.1136 13.7159 56.6534 14.6932C56.1989 15.6648 55.9716 16.8551 55.9716 18.2642C55.9716 19.679 56.2017 20.875 56.6619 21.8523C57.1222 22.8295 57.7528 23.571 58.554 24.0767C59.3551 24.5824 60.267 24.8352 61.2898 24.8352C62.2386 24.8352 63.0653 24.642 63.7699 24.2557C64.4801 23.8693 65.0284 23.3239 65.4148 22.6193C65.8068 21.9091 66.0028 21.0739 66.0028 20.1136L66.6847 20.2415H61.6903V18.0682H68.5511V20.054C68.5511 21.5199 68.2386 22.7926 67.6136 23.8722C66.9943 24.946 66.1364 25.7756 65.0398 26.3608C63.9489 26.946 62.6989 27.2386 61.2898 27.2386C59.7102 27.2386 58.3239 26.875 57.1307 26.1477C55.9432 25.4205 55.017 24.3892 54.3523 23.054C53.6875 21.7131 53.3551 20.1222 53.3551 18.2812C53.3551 16.8892 53.5483 15.6392 53.9347 14.5312C54.321 13.4233 54.8636 12.483 55.5625 11.7102C56.267 10.9318 57.0938 10.3381 58.0426 9.92898C58.9972 9.5142 60.0398 9.30682 61.1705 9.30682C62.1136 9.30682 62.9915 9.44602 63.804 9.72443C64.6222 10.0028 65.3494 10.3977 65.9858 10.9091C66.6278 11.4205 67.1591 12.0284 67.5795 12.733C68 13.4318 68.2841 14.2074 68.4318 15.0597H65.7301ZM77.3317 27.2642C76.0419 27.2642 74.9311 26.9886 73.9993 26.4375C73.0732 25.8807 72.3572 25.0994 71.8516 24.0938C71.3516 23.0824 71.1016 21.8977 71.1016 20.5398C71.1016 19.1989 71.3516 18.017 71.8516 16.9943C72.3572 15.9716 73.0618 15.1733 73.9652 14.5994C74.8743 14.0256 75.9368 13.7386 77.1527 13.7386C77.8913 13.7386 78.6072 13.8608 79.3004 14.1051C79.9936 14.3494 80.6158 14.733 81.1669 15.2557C81.718 15.7784 82.1527 16.4574 82.4709 17.2926C82.7891 18.1222 82.9482 19.1307 82.9482 20.3182V21.2216H72.5419V19.3125H80.451C80.451 18.642 80.3146 18.0483 80.0419 17.5312C79.7692 17.0085 79.3857 16.5966 78.8913 16.2955C78.4027 15.9943 77.8288 15.8438 77.1697 15.8438C76.4538 15.8438 75.8288 16.0199 75.2947 16.3722C74.7663 16.7187 74.3572 17.1733 74.0675 17.7358C73.7834 18.2926 73.6413 18.8977 73.6413 19.5511V21.0426C73.6413 21.9176 73.7947 22.6619 74.1016 23.2756C74.4141 23.8892 74.8487 24.358 75.4055 24.6818C75.9624 25 76.6129 25.1591 77.3572 25.1591C77.8402 25.1591 78.2805 25.0909 78.6783 24.9545C79.076 24.8125 79.4197 24.6023 79.7095 24.3239C79.9993 24.0455 80.2209 23.7017 80.3743 23.2926L82.7862 23.7273C82.593 24.4375 82.2464 25.0597 81.7464 25.5938C81.2521 26.1222 80.63 26.5341 79.88 26.8295C79.1357 27.1193 78.2862 27.2642 77.3317 27.2642ZM91.8864 13.9091V15.9545H84.7358V13.9091H91.8864ZM86.6534 10.7727H89.2017V23.1562C89.2017 23.6506 89.2756 24.0227 89.4233 24.2727C89.571 24.517 89.7614 24.6847 89.9943 24.7756C90.233 24.8608 90.4915 24.9034 90.7699 24.9034C90.9744 24.9034 91.1534 24.8892 91.3068 24.8608C91.4602 24.8324 91.5795 24.8097 91.6648 24.7926L92.125 26.8977C91.9773 26.9545 91.767 27.0114 91.4943 27.0682C91.2216 27.1307 90.8807 27.1648 90.4716 27.1705C89.8011 27.1818 89.1761 27.0625 88.5966 26.8125C88.017 26.5625 87.5483 26.1761 87.1903 25.6534C86.8324 25.1307 86.6534 24.4744 86.6534 23.6847V10.7727ZM100.816 13.9091V15.9545H93.6655V13.9091H100.816ZM95.5831 10.7727H98.1314V23.1562C98.1314 23.6506 98.2053 24.0227 98.353 24.2727C98.5007 24.517 98.6911 24.6847 98.924 24.7756C99.1626 24.8608 99.4212 24.9034 99.6996 24.9034C99.9041 24.9034 100.083 24.8892 100.237 24.8608C100.39 24.8324 100.509 24.8097 100.594 24.7926L101.055 26.8977C100.907 26.9545 100.697 27.0114 100.424 27.0682C100.151 27.1307 99.8104 27.1648 99.4013 27.1705C98.7308 27.1818 98.1058 27.0625 97.5263 26.8125C96.9467 26.5625 96.478 26.1761 96.12 25.6534C95.7621 25.1307 95.5831 24.4744 95.5831 23.6847V10.7727ZM103.635 27V13.9091H106.183V27H103.635ZM104.922 11.8892C104.479 11.8892 104.098 11.7415 103.78 11.446C103.467 11.1449 103.311 10.7869 103.311 10.3722C103.311 9.9517 103.467 9.59375 103.78 9.29829C104.098 8.99716 104.479 8.84659 104.922 8.84659C105.365 8.84659 105.743 8.99716 106.055 9.29829C106.374 9.59375 106.533 9.9517 106.533 10.3722C106.533 10.7869 106.374 11.1449 106.055 11.446C105.743 11.7415 105.365 11.8892 104.922 11.8892ZM112.16 19.2273V27H109.612V13.9091H112.058V16.0398H112.219C112.521 15.3466 112.992 14.7898 113.634 14.3693C114.282 13.9489 115.097 13.7386 116.08 13.7386C116.972 13.7386 117.754 13.9261 118.424 14.3011C119.094 14.6705 119.614 15.2216 119.984 15.9545C120.353 16.6875 120.538 17.5937 120.538 18.6733V27H117.989V18.9801C117.989 18.0312 117.742 17.2898 117.248 16.7557C116.754 16.2159 116.075 15.946 115.211 15.946C114.62 15.946 114.094 16.0739 113.634 16.3295C113.18 16.5852 112.819 16.9602 112.552 17.4545C112.29 17.9432 112.16 18.5341 112.16 19.2273ZM129.444 32.1818C128.404 32.1818 127.509 32.0455 126.759 31.7727C126.015 31.5 125.407 31.1392 124.935 30.6903C124.464 30.2415 124.112 29.75 123.879 29.2159L126.069 28.3125C126.222 28.5625 126.427 28.8267 126.683 29.1051C126.944 29.3892 127.296 29.6307 127.739 29.8295C128.188 30.0284 128.765 30.1278 129.469 30.1278C130.435 30.1278 131.234 29.892 131.864 29.4205C132.495 28.9545 132.81 28.2102 132.81 27.1875V24.6136H132.648C132.495 24.892 132.273 25.2017 131.984 25.5426C131.7 25.8835 131.308 26.179 130.808 26.429C130.308 26.679 129.657 26.804 128.856 26.804C127.822 26.804 126.89 26.5625 126.06 26.0795C125.237 25.5909 124.583 24.8722 124.1 23.9233C123.623 22.9687 123.384 21.7955 123.384 20.4034C123.384 19.0114 123.62 17.8182 124.092 16.8239C124.569 15.8295 125.222 15.0682 126.052 14.5398C126.881 14.0057 127.822 13.7386 128.873 13.7386C129.685 13.7386 130.342 13.875 130.842 14.1477C131.342 14.4148 131.731 14.7273 132.009 15.0852C132.293 15.4432 132.512 15.7585 132.665 16.0312H132.853V13.9091H135.35V27.2898C135.35 28.4148 135.089 29.3381 134.566 30.0597C134.043 30.7813 133.336 31.3153 132.444 31.6619C131.558 32.0085 130.558 32.1818 129.444 32.1818ZM129.418 24.6903C130.151 24.6903 130.771 24.5199 131.276 24.179C131.788 23.8324 132.174 23.3381 132.435 22.696C132.702 22.0483 132.836 21.2727 132.836 20.3693C132.836 19.4886 132.705 18.7131 132.444 18.0426C132.183 17.3722 131.799 16.8494 131.293 16.4744C130.788 16.0937 130.163 15.9034 129.418 15.9034C128.651 15.9034 128.012 16.1023 127.501 16.5C126.989 16.892 126.603 17.4261 126.342 18.1023C126.086 18.7784 125.958 19.5341 125.958 20.3693C125.958 21.2273 126.089 21.9801 126.35 22.6278C126.612 23.2756 126.998 23.7812 127.509 24.1449C128.026 24.5085 128.663 24.6903 129.418 24.6903ZM154.844 14.1307C154.753 13.3239 154.378 12.6989 153.719 12.2557C153.06 11.8068 152.23 11.5824 151.23 11.5824C150.514 11.5824 149.895 11.696 149.372 11.9233C148.849 12.1449 148.443 12.4517 148.153 12.8438C147.869 13.2301 147.727 13.6705 147.727 14.1648C147.727 14.5795 147.824 14.9375 148.017 15.2386C148.216 15.5398 148.474 15.7926 148.793 15.9972C149.116 16.196 149.463 16.3636 149.832 16.5C150.202 16.6307 150.557 16.7386 150.898 16.8239L152.602 17.267C153.159 17.4034 153.73 17.5881 154.315 17.821C154.901 18.054 155.443 18.3608 155.943 18.7415C156.443 19.1222 156.847 19.5938 157.153 20.1562C157.466 20.7188 157.622 21.392 157.622 22.1761C157.622 23.1648 157.366 24.0426 156.855 24.8097C156.349 25.5767 155.614 26.1818 154.648 26.625C153.688 27.0682 152.526 27.2898 151.162 27.2898C149.855 27.2898 148.724 27.0824 147.77 26.6676C146.815 26.2528 146.068 25.6648 145.528 24.9034C144.989 24.1364 144.69 23.2273 144.634 22.1761H147.276C147.327 22.8068 147.531 23.3324 147.889 23.7528C148.253 24.1676 148.716 24.4773 149.278 24.6818C149.847 24.8807 150.469 24.9801 151.145 24.9801C151.889 24.9801 152.551 24.8636 153.131 24.6307C153.716 24.392 154.176 24.0625 154.511 23.642C154.847 23.2159 155.014 22.7187 155.014 22.1506C155.014 21.6335 154.866 21.2102 154.571 20.8807C154.281 20.5511 153.886 20.2784 153.386 20.0625C152.892 19.8466 152.332 19.6562 151.707 19.4915L149.645 18.929C148.247 18.5483 147.139 17.9886 146.321 17.25C145.509 16.5114 145.102 15.5341 145.102 14.3182C145.102 13.3125 145.375 12.4347 145.92 11.6847C146.466 10.9347 147.205 10.3523 148.136 9.9375C149.068 9.51705 150.119 9.30682 151.29 9.30682C152.472 9.30682 153.514 9.5142 154.418 9.92898C155.327 10.3438 156.043 10.9148 156.565 11.642C157.088 12.3636 157.361 13.1932 157.384 14.1307H154.844ZM166.675 13.9091V15.9545H159.525V13.9091H166.675ZM161.442 10.7727H163.991V23.1562C163.991 23.6506 164.065 24.0227 164.212 24.2727C164.36 24.517 164.55 24.6847 164.783 24.7756C165.022 24.8608 165.281 24.9034 165.559 24.9034C165.763 24.9034 165.942 24.8892 166.096 24.8608C166.249 24.8324 166.369 24.8097 166.454 24.7926L166.914 26.8977C166.766 26.9545 166.556 27.0114 166.283 27.0682C166.011 27.1307 165.67 27.1648 165.261 27.1705C164.59 27.1818 163.965 27.0625 163.386 26.8125C162.806 26.5625 162.337 26.1761 161.979 25.6534C161.621 25.1307 161.442 24.4744 161.442 23.6847V10.7727ZM173.304 27.2898C172.474 27.2898 171.724 27.1364 171.054 26.8295C170.384 26.517 169.852 26.0653 169.46 25.4744C169.074 24.8835 168.881 24.1591 168.881 23.3011C168.881 22.5625 169.023 21.9545 169.307 21.4773C169.591 21 169.974 20.6222 170.457 20.3438C170.94 20.0653 171.48 19.8551 172.077 19.7131C172.673 19.571 173.281 19.4631 173.901 19.3892C174.685 19.2983 175.321 19.2244 175.81 19.1676C176.298 19.1051 176.653 19.0057 176.875 18.8693C177.097 18.733 177.207 18.5114 177.207 18.2045V18.1449C177.207 17.4006 176.997 16.8239 176.577 16.4148C176.162 16.0057 175.543 15.8011 174.719 15.8011C173.861 15.8011 173.185 15.9915 172.69 16.3722C172.202 16.7472 171.864 17.1648 171.676 17.625L169.281 17.0795C169.565 16.2841 169.98 15.642 170.526 15.1534C171.077 14.6591 171.71 14.3011 172.426 14.0795C173.142 13.8523 173.895 13.7386 174.685 13.7386C175.207 13.7386 175.761 13.8011 176.347 13.9261C176.938 14.0455 177.489 14.267 178 14.5909C178.517 14.9148 178.94 15.3778 179.27 15.9801C179.599 16.5767 179.764 17.3523 179.764 18.3068V27H177.276V25.2102H177.173C177.009 25.5398 176.761 25.8636 176.432 26.1818C176.102 26.5 175.679 26.7642 175.162 26.9744C174.645 27.1847 174.026 27.2898 173.304 27.2898ZM173.858 25.2443C174.563 25.2443 175.165 25.1051 175.665 24.8267C176.17 24.5483 176.554 24.1847 176.815 23.7358C177.082 23.2812 177.216 22.7955 177.216 22.2784V20.5909C177.125 20.6818 176.949 20.767 176.688 20.8466C176.432 20.9205 176.139 20.9858 175.81 21.0426C175.48 21.0937 175.159 21.142 174.847 21.1875C174.534 21.2273 174.273 21.2614 174.062 21.2898C173.568 21.3523 173.116 21.4574 172.707 21.6051C172.304 21.7528 171.98 21.9659 171.736 22.2443C171.497 22.517 171.378 22.8807 171.378 23.3352C171.378 23.9659 171.611 24.4432 172.077 24.767C172.543 25.0852 173.136 25.2443 173.858 25.2443ZM183.158 27V13.9091H185.621V15.9886H185.758C185.996 15.2841 186.417 14.7301 187.019 14.3267C187.627 13.9176 188.315 13.7131 189.082 13.7131C189.241 13.7131 189.428 13.7187 189.644 13.7301C189.866 13.7415 190.039 13.7557 190.164 13.7727V16.2102C190.062 16.1818 189.88 16.1506 189.619 16.1165C189.357 16.0767 189.096 16.0568 188.835 16.0568C188.232 16.0568 187.695 16.1847 187.224 16.4403C186.758 16.6903 186.388 17.0398 186.116 17.4886C185.843 17.9318 185.707 18.4375 185.707 19.0057V27H183.158ZM199.254 13.9091V15.9545H192.103V13.9091H199.254ZM194.021 10.7727H196.569V23.1562C196.569 23.6506 196.643 24.0227 196.79 24.2727C196.938 24.517 197.129 24.6847 197.362 24.7756C197.6 24.8608 197.859 24.9034 198.137 24.9034C198.342 24.9034 198.521 24.8892 198.674 24.8608C198.827 24.8324 198.947 24.8097 199.032 24.7926L199.492 26.8977C199.344 26.9545 199.134 27.0114 198.862 27.0682C198.589 27.1307 198.248 27.1648 197.839 27.1705C197.168 27.1818 196.543 27.0625 195.964 26.8125C195.384 26.5625 194.915 26.1761 194.558 25.6534C194.2 25.1307 194.021 24.4744 194.021 23.6847V10.7727ZM207.574 27.2642C206.284 27.2642 205.173 26.9886 204.241 26.4375C203.315 25.8807 202.599 25.0994 202.094 24.0938C201.594 23.0824 201.344 21.8977 201.344 20.5398C201.344 19.1989 201.594 18.017 202.094 16.9943C202.599 15.9716 203.304 15.1733 204.207 14.5994C205.116 14.0256 206.179 13.7386 207.395 13.7386C208.134 13.7386 208.849 13.8608 209.543 14.1051C210.236 14.3494 210.858 14.733 211.409 15.2557C211.96 15.7784 212.395 16.4574 212.713 17.2926C213.031 18.1222 213.19 19.1307 213.19 20.3182V21.2216H202.784V19.3125H210.693C210.693 18.642 210.557 18.0483 210.284 17.5312C210.011 17.0085 209.628 16.5966 209.134 16.2955C208.645 15.9943 208.071 15.8438 207.412 15.8438C206.696 15.8438 206.071 16.0199 205.537 16.3722C205.009 16.7187 204.599 17.1733 204.31 17.7358C204.026 18.2926 203.884 18.8977 203.884 19.5511V21.0426C203.884 21.9176 204.037 22.6619 204.344 23.2756C204.656 23.8892 205.091 24.358 205.648 24.6818C206.205 25 206.855 25.1591 207.599 25.1591C208.082 25.1591 208.523 25.0909 208.92 24.9545C209.318 24.8125 209.662 24.6023 209.952 24.3239C210.241 24.0455 210.463 23.7017 210.616 23.2926L213.028 23.7273C212.835 24.4375 212.489 25.0597 211.989 25.5938C211.494 26.1222 210.872 26.5341 210.122 26.8295C209.378 27.1193 208.528 27.2642 207.574 27.2642ZM220.918 27.2557C219.862 27.2557 218.918 26.9858 218.089 26.446C217.265 25.9006 216.617 25.125 216.146 24.1193C215.68 23.108 215.447 21.8949 215.447 20.4801C215.447 19.0653 215.683 17.8551 216.154 16.8494C216.631 15.8437 217.285 15.0739 218.114 14.5398C218.944 14.0057 219.884 13.7386 220.935 13.7386C221.748 13.7386 222.401 13.875 222.896 14.1477C223.396 14.4148 223.782 14.7273 224.055 15.0852C224.333 15.4432 224.549 15.7585 224.702 16.0312H224.856V9.54545H227.404V27H224.915V24.9631H224.702C224.549 25.2415 224.327 25.5597 224.038 25.9176C223.754 26.2756 223.362 26.5881 222.862 26.8551C222.362 27.1222 221.714 27.2557 220.918 27.2557ZM221.481 25.0824C222.214 25.0824 222.833 24.8892 223.339 24.5028C223.85 24.1108 224.237 23.5682 224.498 22.875C224.765 22.1818 224.898 21.375 224.898 20.4545C224.898 19.5455 224.768 18.75 224.506 18.0682C224.245 17.3864 223.862 16.8551 223.356 16.4744C222.85 16.0937 222.225 15.9034 221.481 15.9034C220.714 15.9034 220.075 16.1023 219.563 16.5C219.052 16.8977 218.665 17.4403 218.404 18.1278C218.148 18.8153 218.021 19.5909 218.021 20.4545C218.021 21.3295 218.151 22.1165 218.413 22.8153C218.674 23.5142 219.06 24.0682 219.572 24.4773C220.089 24.8807 220.725 25.0824 221.481 25.0824Z" fill="#9CA3AF"/>
<path d="M250.588 27.3153L249.054 25.7983L254.381 20.4716H241V18.2557H254.381L249.054 12.9375L250.588 11.4119L258.54 19.3636L250.588 27.3153Z" fill="#9CA3AF"/>
<path d="M274.335 27L269.494 9.54545H272.264L275.665 23.0625H275.827L279.364 9.54545H282.108L285.645 23.071H285.807L289.199 9.54545H291.977L287.128 27H284.477L280.804 13.9261H280.668L276.994 27H274.335ZM298.527 27.2642C297.237 27.2642 296.126 26.9886 295.195 26.4375C294.268 25.8807 293.553 25.0994 293.047 24.0938C292.547 23.0824 292.297 21.8977 292.297 20.5398C292.297 19.1989 292.547 18.017 293.047 16.9943C293.553 15.9716 294.257 15.1733 295.161 14.5994C296.07 14.0256 297.132 13.7386 298.348 13.7386C299.087 13.7386 299.803 13.8608 300.496 14.1051C301.189 14.3494 301.811 14.733 302.362 15.2557C302.913 15.7784 303.348 16.4574 303.666 17.2926C303.984 18.1222 304.143 19.1307 304.143 20.3182V21.2216H293.737V19.3125H301.646C301.646 18.642 301.51 18.0483 301.237 17.5312C300.964 17.0085 300.581 16.5966 300.087 16.2955C299.598 15.9943 299.024 15.8438 298.365 15.8438C297.649 15.8438 297.024 16.0199 296.49 16.3722C295.962 16.7187 295.553 17.1733 295.263 17.7358C294.979 18.2926 294.837 18.8977 294.837 19.5511V21.0426C294.837 21.9176 294.99 22.6619 295.297 23.2756C295.609 23.8892 296.044 24.358 296.601 24.6818C297.158 25 297.808 25.1591 298.553 25.1591C299.036 25.1591 299.476 25.0909 299.874 24.9545C300.271 24.8125 300.615 24.6023 300.905 24.3239C301.195 24.0455 301.416 23.7017 301.57 23.2926L303.982 23.7273C303.788 24.4375 303.442 25.0597 302.942 25.5938C302.447 26.1222 301.825 26.5341 301.075 26.8295C300.331 27.1193 299.482 27.2642 298.527 27.2642ZM309.519 9.54545V27H306.971V9.54545H309.519ZM318.462 27.2642C317.195 27.2642 316.104 26.9773 315.189 26.4034C314.28 25.8239 313.581 25.0256 313.092 24.0085C312.604 22.9915 312.359 21.8267 312.359 20.5142C312.359 19.1847 312.609 18.0114 313.109 16.9943C313.609 15.9716 314.314 15.1733 315.223 14.5994C316.132 14.0256 317.203 13.7386 318.436 13.7386C319.43 13.7386 320.317 13.9233 321.095 14.2926C321.874 14.6562 322.501 15.1676 322.979 15.8267C323.462 16.4858 323.749 17.2557 323.839 18.1364H321.359C321.223 17.5227 320.911 16.9943 320.422 16.5511C319.939 16.108 319.291 15.8864 318.479 15.8864C317.768 15.8864 317.146 16.0739 316.612 16.4489C316.084 16.8182 315.672 17.3466 315.376 18.0341C315.081 18.7159 314.933 19.5227 314.933 20.4545C314.933 21.4091 315.078 22.233 315.368 22.9261C315.658 23.6193 316.067 24.1562 316.595 24.5369C317.129 24.9176 317.757 25.108 318.479 25.108C318.962 25.108 319.399 25.0199 319.791 24.8438C320.189 24.6619 320.521 24.4034 320.788 24.0682C321.061 23.733 321.251 23.3295 321.359 22.858H323.839C323.749 23.7045 323.473 24.4602 323.013 25.125C322.553 25.7898 321.936 26.3125 321.163 26.6932C320.396 27.0739 319.496 27.2642 318.462 27.2642ZM332.079 27.2642C330.852 27.2642 329.781 26.983 328.866 26.4205C327.951 25.858 327.241 25.071 326.735 24.0597C326.229 23.0483 325.977 21.8665 325.977 20.5142C325.977 19.1562 326.229 17.9687 326.735 16.9517C327.241 15.9347 327.951 15.1449 328.866 14.5824C329.781 14.0199 330.852 13.7386 332.079 13.7386C333.306 13.7386 334.377 14.0199 335.292 14.5824C336.207 15.1449 336.917 15.9347 337.423 16.9517C337.928 17.9687 338.181 19.1562 338.181 20.5142C338.181 21.8665 337.928 23.0483 337.423 24.0597C336.917 25.071 336.207 25.858 335.292 26.4205C334.377 26.983 333.306 27.2642 332.079 27.2642ZM332.087 25.125C332.883 25.125 333.542 24.9148 334.065 24.4943C334.587 24.0739 334.974 23.5142 335.224 22.8153C335.479 22.1165 335.607 21.3466 335.607 20.5057C335.607 19.6705 335.479 18.9034 335.224 18.2045C334.974 17.5 334.587 16.9347 334.065 16.5085C333.542 16.0824 332.883 15.8693 332.087 15.8693C331.286 15.8693 330.621 16.0824 330.093 16.5085C329.57 16.9347 329.181 17.5 328.925 18.2045C328.675 18.9034 328.55 19.6705 328.55 20.5057C328.55 21.3466 328.675 22.1165 328.925 22.8153C329.181 23.5142 329.57 24.0739 330.093 24.4943C330.621 24.9148 331.286 25.125 332.087 25.125ZM341.026 27V13.9091H343.472V16.0398H343.634C343.906 15.3182 344.352 14.7557 344.972 14.3523C345.591 13.9432 346.332 13.7386 347.196 13.7386C348.071 13.7386 348.804 13.9432 349.395 14.3523C349.991 14.7614 350.432 15.3239 350.716 16.0398H350.852C351.165 15.3409 351.662 14.7841 352.344 14.3693C353.026 13.9489 353.838 13.7386 354.781 13.7386C355.969 13.7386 356.938 14.1108 357.688 14.8551C358.443 15.5994 358.821 16.7216 358.821 18.2216V27H356.273V18.4602C356.273 17.5739 356.031 16.9318 355.548 16.5341C355.065 16.1364 354.489 15.9375 353.818 15.9375C352.989 15.9375 352.344 16.1932 351.884 16.7045C351.423 17.2102 351.193 17.8608 351.193 18.6562V27H348.653V18.2983C348.653 17.5881 348.432 17.017 347.989 16.5852C347.545 16.1534 346.969 15.9375 346.259 15.9375C345.776 15.9375 345.33 16.0653 344.92 16.321C344.517 16.571 344.19 16.9205 343.94 17.3693C343.696 17.8182 343.574 18.3381 343.574 18.929V27H341.026ZM367.879 27.2642C366.589 27.2642 365.478 26.9886 364.546 26.4375C363.62 25.8807 362.904 25.0994 362.398 24.0938C361.898 23.0824 361.648 21.8977 361.648 20.5398C361.648 19.1989 361.898 18.017 362.398 16.9943C362.904 15.9716 363.609 15.1733 364.512 14.5994C365.421 14.0256 366.484 13.7386 367.7 13.7386C368.438 13.7386 369.154 13.8608 369.847 14.1051C370.54 14.3494 371.163 14.733 371.714 15.2557C372.265 15.7784 372.7 16.4574 373.018 17.2926C373.336 18.1222 373.495 19.1307 373.495 20.3182V21.2216H363.089V19.3125H370.998C370.998 18.642 370.862 18.0483 370.589 17.5312C370.316 17.0085 369.933 16.5966 369.438 16.2955C368.95 15.9943 368.376 15.8438 367.717 15.8438C367.001 15.8438 366.376 16.0199 365.842 16.3722C365.313 16.7187 364.904 17.1733 364.614 17.7358C364.33 18.2926 364.188 18.8977 364.188 19.5511V21.0426C364.188 21.9176 364.342 22.6619 364.648 23.2756C364.961 23.8892 365.396 24.358 365.952 24.6818C366.509 25 367.16 25.1591 367.904 25.1591C368.387 25.1591 368.827 25.0909 369.225 24.9545C369.623 24.8125 369.967 24.6023 370.256 24.3239C370.546 24.0455 370.768 23.7017 370.921 23.2926L373.333 23.7273C373.14 24.4375 372.793 25.0597 372.293 25.5938C371.799 26.1222 371.177 26.5341 370.427 26.8295C369.683 27.1193 368.833 27.2642 367.879 27.2642Z" fill="white"/>
<defs>
<clipPath id="clip0_2462_8">
<rect width="36" height="36" fill="white"/>
</clipPath>
</defs>
</svg>
